<svg width="64" height="20" viewBox="0 0 64 20" fill="none" xmlns="http://www.w3.org/2000/svg">
<path fill-rule="evenodd" clip-rule="evenodd" d="M49.8351 8.3871H52.3636V5.87083L50.8639 4.37338L49.0068 2.51907L47.8014 1.31551L46.4839 0L43.961 0.00279896L43.9596 3.58967L49.8351 8.3871ZM43.961 19.9972L43.9596 16.4097L49.8351 11.6129H52.3636V14.1281L50.8639 15.6258L49.0068 17.4805L47.8014 18.6842L46.4839 20L43.961 19.9972ZM55.596 11.6129H58.1245L64.0001 16.4097L63.9987 19.9972L61.4758 20L60.1583 18.6842L58.9529 17.4805L57.0957 15.6258L55.596 14.1281V11.6129ZM63.9986 0.00279943L64 3.59027L58.1245 8.3871H55.596V5.87181L57.0957 4.37411L58.9528 2.51949L60.1582 1.31573L61.4757 0L63.9986 0.00279943Z" fill="#FF6F61"/>
<path d="M9.00967 9.14286L4.29968 7.19221C3.68423 6.93639 3.08292 6.59159 3.08292 5.45151V4.88564C3.08292 3.33959 3.99691 2.64998 6.04559 2.64998C8.09427 2.64998 9.00825 3.33959 9.00825 4.88564V4.89399V5.76156V6.46924H11.8054V5.76295V5.76156V4.5186C11.8054 2.83073 11.0541 0 6.02012 0C4.01813 0 2.50992 0.45464 1.53934 1.3528C0.707417 2.12165 0.285797 3.18665 0.285797 4.5186V6.13C0.285797 7.95551 1.49407 9.28189 2.69243 9.78658L7.0671 11.6232L7.08549 11.6302C8.09568 12.0542 9.13842 12.4922 9.13842 13.7866V15.1144C9.13842 16.6187 8.10134 17.35 5.96919 17.35C3.85401 17.35 2.82542 16.6187 2.82542 15.1144V14.6806H2.82684V13.1053H0V13.8422V14.6806V15.4814C0 16.7855 0.465481 17.8825 1.34834 18.6514C2.37551 19.5467 3.93748 20 5.99324 20C11.1857 20 11.9596 17.1693 11.9596 15.4814V13.1359C11.9596 11.2812 10.9947 9.97289 9.00967 9.14286Z" fill="white"/>
<path fill-rule="evenodd" clip-rule="evenodd" d="M14.5455 4.51797C14.5455 2.83033 15.3206 0 20.512 0C22.7508 0 26.5051 0.58664 26.5051 4.51797V15.482C26.5051 19.4134 22.7494 20 20.512 20C15.3206 20 14.5455 17.1697 14.5455 15.482V4.51797ZM20.513 17.4193C22.5588 17.4193 23.596 16.6375 23.596 15.0965V4.90348C23.596 3.36242 22.5588 2.58062 20.513 2.58062C18.4836 2.58062 17.4546 3.36242 17.4546 4.90348V15.0965C17.4546 16.6375 18.4836 17.4193 20.513 17.4193Z" fill="white"/>
<path d="M43.7091 8.70978H40.0081H39.7576V9.48174V10.841V11.613H40.0081H43.7091H43.9596V10.841V9.48174V8.70978H43.7091Z" fill="white"/>
<path d="M39.0737 17.2603H38.9273H32.39V2.50782H32.3987V0H31.7324H30.0995H29.4142V0.748222V2.50782V18.2845V19.2518V20H30.019H31.1818H38.9273H39.0737H39.7576V19.2817V17.9516V17.2603H39.0737Z" fill="white"/>
</svg>
